<?xml version="1.0" encoding="UTF-8" standalone="no"?>
<svg
   xmlns:dc="http://purl.org/dc/elements/1.1/"
   xmlns:cc="http://creativecommons.org/ns#"
   xmlns:rdf="http://www.w3.org/1999/02/22-rdf-syntax-ns#"
   xmlns:svg="http://www.w3.org/2000/svg"
   xmlns="http://www.w3.org/2000/svg"
   xmlns:sodipodi="http://sodipodi.sourceforge.net/DTD/sodipodi-0.dtd"
   xmlns:inkscape="http://www.inkscape.org/namespaces/inkscape"
   width="100"
   height="100"
   version="1.1"
   viewBox="0 0 26.458332 26.458335"
   id="svg4525"
   sodipodi:docname="phi.svg"
   inkscape:version="0.92.0 r15299">
  <defs
     id="defs4529" />
  <sodipodi:namedview
     pagecolor="#ffffff"
     bordercolor="#666666"
     borderopacity="1"
     objecttolerance="10"
     gridtolerance="10"
     guidetolerance="10"
     inkscape:pageopacity="0"
     inkscape:pageshadow="2"
     inkscape:window-width="1600"
     inkscape:window-height="838"
     id="namedview4527"
     showgrid="false"
     inkscape:zoom="5.6"
     inkscape:cx="36.359356"
     inkscape:cy="53.158696"
     inkscape:window-x="-8"
     inkscape:window-y="-8"
     inkscape:window-maximized="1"
     inkscape:current-layer="svg4525" />
  <metadata
     id="metadata4519">
    <rdf:RDF>
      <cc:Work
         rdf:about="">
        <dc:format>image/svg+xml</dc:format>
        <dc:type
           rdf:resource="http://purl.org/dc/dcmitype/StillImage" />
        <dc:title />
      </cc:Work>
    </rdf:RDF>
  </metadata>
  <g
     transform="translate(-22.881992,-4.0908)"
     id="g4523"
     style="fill:#e6e6e6;fill-opacity:1">
    <path
       d="m 36.067,20.667 c 1.4534,-0.003 2.9131,-0.4355 4.1063,-1.3171 1.9561,-1.4465 2.8387,-3.8788 2.145,-5.9156 l -0.0119,-0.0386 c -0.11377,-0.37385 -0.62997,-1.5116 -1.4621,-1.7664 -0.95223,-0.29183 -2.3196,-0.13414 -3.4277,2.2736 -0.7882,1.7132 -1.2647,3.9793 -1.3409,6.3812 -0.004,0.12779 -0.007,0.25559 -0.009,0.38285 m -0.0415,6.4336 c -0.0206,0.007 -0.0415,0.013 -0.0627,0.0188 -0.63765,0.17753 -1.3192,-0.12938 -1.5227,-0.6858 -0.38684,-1.0578 -0.64322,-2.4276 -0.74694,-3.932 -1.6465,-0.39661 -3.1779,-1.2139 -4.363,-2.4342 -1.5203,-1.5658 -2.2505,-3.5547 -2.0566,-5.5999 0.19394,-2.0452 1.289,-3.9021 3.0835,-5.2284 1.2068,-0.89191 2.6636,-1.4838 4.2151,-1.7129 0.1098,-0.0204 0.33258,-0.0548 0.59055,-0.0558 0.94694,-0.004 1.383,0.4355 1.5587,0.69797 0.67257,1.0046 -0.32597,2.1648 -1.506,3.2689 -0.45641,0.4273 -1.2232,0.45058 -1.7126,0.0524 -0.47546,-0.38682 -0.51435,-1.0295 -0.0976,-1.4573 -0.53155,0.2114 -1.0303,0.48684 -1.4814,0.82021 -1.3007,0.9615 -2.0944,2.3072 -2.2349,3.7894 -0.14049,1.4822 0.38867,2.9236 1.4907,4.0584 0.69083,0.71146 1.5441,1.234 2.4728,1.5605 2.6e-4,-0.0116 7.9e-4,-0.0236 10e-4,-0.0355 0.0595,-1.8714 0.37042,-4.6244 1.5145,-7.1107 0.69558,-1.5113 1.6322,-2.5813 2.7837,-3.18 1.1343,-0.58976 2.4122,-0.69401 3.6962,-0.30057 2.1452,0.65749 2.8956,2.871 3.0004,3.2155 0.46699,1.3846 0.43974,2.8892 -0.0781,4.3529 -0.52335,1.478 -1.502,2.7786 -2.83,3.7605 -0.7829,0.57864 -1.6494,1.0173 -2.5588,1.3182 -0.97896,0.32465 -2.0074,0.48948 -3.0353,0.49874 0.10584,1.1652 0.31274,2.2154 0.60299,3.0102 0.19685,0.53842 -0.12568,1.1126 -0.72337,1.3105"
       id="path4521"
       inkscape:connector-curvature="0"
       style="fill:#e6e6e6;fill-opacity:1" />
  </g>
</svg>
